<?xml version="1.0" encoding="UTF-8" standalone="no"?>
<svg
   version="1.0"
   width="7.5in"
   height="7.5in"
   viewBox="0 0 190.5 190.5"
   id="svg4"
   sodipodi:docname="jigsaw.svg"
   inkscape:version="1.2.2 (b0a8486541, 2022-12-01)"
   xmlns:inkscape="http://www.inkscape.org/namespaces/inkscape"
   xmlns:sodipodi="http://sodipodi.sourceforge.net/DTD/sodipodi-0.dtd"
   xmlns="http://www.w3.org/2000/svg"
   xmlns:svg="http://www.w3.org/2000/svg">
  <defs
     id="defs8" />
  <sodipodi:namedview
     id="namedview6"
     pagecolor="#ffffff"
     bordercolor="#000000"
     borderopacity="0.25"
     inkscape:showpageshadow="2"
     inkscape:pageopacity="0.0"
     inkscape:pagecheckerboard="0"
     inkscape:deskcolor="#d1d1d1"
     inkscape:document-units="mm"
     showgrid="false"
     inkscape:zoom="0.5861663"
     inkscape:cx="979.24429"
     inkscape:cy="226.89807"
     inkscape:window-width="1904"
     inkscape:window-height="1115"
     inkscape:window-x="8"
     inkscape:window-y="40"
     inkscape:window-maximized="0"
     inkscape:current-layer="svg4" />
  <path
     style="fill:#3a27ff;stroke-width:1.05046;stroke-linecap:round"
     d="M 9.6588945,29.297163 C 8.9464735,29.062226 7.8778425,28.780996 7.2841585,28.672199 L 6.2047335,28.474392 V 17.666457 6.8585232 H 16.672048 c 9.904476,0 10.460149,0.0167 10.334102,0.310586 -0.07326,0.170823 -0.326955,1.029372 -0.563751,1.907888 -0.346088,1.2839828 -0.433683,2.0324658 -0.446569,3.8157748 -0.02138,2.959295 0.36027,3.727037 1.852728,3.727037 0.570965,0 1.021379,-0.263274 3.215873,-1.879731 1.173639,-0.864499 2.126659,-0.762381 2.653531,0.284332 0.67784,1.346622 0.01867,3.776834 -1.320857,4.869675 -0.608991,0.496842 -0.779911,0.543531 -2.072496,0.566126 -0.774825,0.01354 -1.626028,0.03352 -1.891567,0.04437 -0.265537,0.01086 -0.673561,0.215775 -0.906717,0.45537 -0.367821,0.377981 -0.423467,0.595226 -0.420499,1.641671 0.0018,0.663324 0.08431,1.765099 0.183183,2.448389 0.09887,0.68329 0.131098,1.73101 0.07162,2.328265 l -0.108146,1.085921 -1.070134,0.112666 c -0.588575,0.06197 -2.339273,0.351987 -3.890441,0.644491 -5.335133,1.006042 -6.055315,0.660756 -4.426501,-2.122252 0.636441,-1.08743 0.774307,-1.477652 0.774307,-2.191638 0,-0.740821 -0.07806,-0.943586 -0.530495,-1.377892 -1.357367,-1.302989 -4.504771,-0.760933 -5.520382,0.950738 -0.415221,0.699798 -0.424127,1.341879 -0.04488,3.235224 0.245809,1.227154 0.256579,1.516843 0.06521,1.7538 -0.324363,0.401626 -1.400756,0.33881 -2.9502725,-0.172171 z"
     id="path506" />
  <path
     style="fill:#3a27ff;stroke-width:1.05046;stroke-linecap:round"
     d="m 38.706528,59.590745 c -1.746759,-0.721093 -2.208655,-1.533235 -2.24102,-3.94034 -0.02218,-1.650143 -0.04823,-1.765947 -0.501994,-2.232359 -0.467788,-0.480826 -0.522375,-0.491681 -2.417913,-0.480785 -1.066627,0.0061 -2.910804,0.04452 -4.098172,0.0853 -1.187368,0.04079 -2.255999,0.01109 -2.374736,-0.06599 -0.168822,-0.109592 -0.215885,-2.478597 -0.215885,-10.867084 V 31.362545 h 0.48607 c 0.267339,0 1.452549,0.278684 2.633799,0.619296 2.304278,0.664438 2.761155,0.725601 3.281685,0.439327 0.427282,-0.23499 0.445197,-1.210846 0.0538,-2.930902 -0.275394,-1.210274 -0.273218,-1.277748 0.06668,-2.067371 0.509468,-1.183547 1.622955,-1.828383 3.157207,-1.828383 1.226117,0 1.83888,0.279184 2.340921,1.066557 0.387073,0.607063 0.217283,1.366052 -0.627637,2.805637 -0.891341,1.518679 -1.009305,2.094633 -0.529914,2.587264 0.51143,0.525553 2.278984,0.498077 5.317265,-0.08266 2.602356,-0.497415 4.720056,-0.775595 4.713861,-0.619209 -0.0021,0.05455 -0.237906,0.977702 -0.523881,2.051443 -0.285976,1.073743 -0.561799,2.591179 -0.612941,3.372082 -0.0801,1.222997 -0.04453,1.498449 0.256582,1.986996 0.393161,0.637899 1.141401,0.872938 2.221588,0.697851 2.173938,-0.352374 2.702201,-0.336726 3.323069,0.09843 1.577466,1.105616 2.047885,3.927446 0.858488,5.149692 -0.753643,0.774457 -1.497918,0.684767 -3.274168,-0.39455 -1.783357,-1.083636 -2.305095,-1.115541 -2.383776,-0.145771 -0.02893,0.356664 0.109785,1.513239 0.308269,2.570164 0.402388,2.142712 0.47633,4.542994 0.169392,5.498711 -0.165596,0.515609 -0.269117,0.612608 -0.572652,0.536569 -2.572774,-0.644505 -6.267521,-0.911427 -6.974561,-0.50387 -0.915877,0.527939 -0.611889,1.718822 0.985412,3.860383 0.871092,1.167902 1.22866,2.21994 0.923491,2.717094 -0.622509,1.014138 -2.290965,1.34505 -3.748336,0.743425 z"
     id="path508" />
  <path
     style="fill:#3a27ff;stroke-width:1.05046;stroke-linecap:round"
     d="m 59.428659,29.073659 c -0.372622,-0.423115 -0.360498,-0.916823 0.05958,-2.426348 0.546286,-1.963017 0.419408,-2.835445 -0.547247,-3.762935 -0.933119,-0.895312 -2.936756,-1.228799 -4.178772,-0.695519 -1.496626,0.642601 -1.701404,1.966843 -0.627928,4.060636 0.379958,0.741102 0.690832,1.540702 0.690832,1.776889 0,1.243383 -1.601109,1.440531 -6.722499,0.827762 L 44.69845,28.44684 44.77861,27.458336 c 0.04409,-0.543675 -0.01929,-1.964619 -0.140855,-3.157651 -0.335181,-3.28967 -0.108938,-3.59822 2.63952,-3.599793 1.792891,-0.001 2.51654,-0.304678 3.288492,-1.379896 0.935139,-1.30252 1.097574,-4.033095 0.292316,-4.913928 -0.64372,-0.704136 -1.791532,-0.634341 -2.87924,0.175081 -1.555562,1.157575 -2.391507,1.696247 -2.794923,1.80101 -0.604804,0.157062 -1.148431,-0.184733 -1.502577,-0.944716 -0.598086,-1.283471 -0.297968,-5.235074 0.582732,-7.6727138 l 0.295706,-0.818467 10.56662,-0.04573 10.566621,-0.04573 0.599671,1.997989 c 1.0529,3.5080808 1.25449,4.7181828 0.96809,5.8111788 -0.14731,0.562181 -0.32413,0.792109 -0.7815,1.016237 -0.54781,0.268446 -0.6672,0.26793 -1.629618,-0.007 -1.477714,-0.422188 -2.589125,-0.387561 -3.293695,0.102621 -0.874439,0.608359 -1.376894,1.737825 -1.376894,3.095108 0,2.970089 1.672909,3.811798 4.339925,2.183594 0.637725,-0.38933 1.340492,-0.728012 1.561712,-0.752628 0.36253,-0.04034 0.40138,0.02528 0.39386,0.665155 -0.005,0.390451 -0.21831,1.637976 -0.47494,2.772277 -0.290869,1.285607 -0.466608,2.572361 -0.466608,3.416452 0,0.744745 -0.04018,1.354083 -0.08929,1.354083 -0.04911,0 -0.987951,0.199664 -2.086315,0.443694 -2.427411,0.539317 -3.5293,0.572732 -3.928766,0.119135 z"
     id="path510" />
  <path
     style="fill:#3a27ff;stroke-width:1.05046;stroke-linecap:round"
     d="m 76.363833,59.125324 c -1.50191,-0.769103 -1.84317,-1.747699 -1.3921,-3.991904 0.16298,-0.810857 0.15714,-1.121779 -0.0297,-1.585448 -0.44672,-1.108258 -1.51913,-1.266542 -5.33879,-0.787994 -1.21847,0.152655 -2.55588,0.252486 -2.97203,0.221847 -0.69498,-0.05117 -0.75215,-0.09186 -0.70172,-0.499406 0.20541,-1.659714 0.085,-4.161969 -0.297211,-6.178642 -0.360185,-1.900253 -0.381841,-2.218675 -0.165984,-2.440494 0.278297,-0.285982 0.625325,-0.141591 2.332005,0.970305 2.18992,1.426721 3.85985,0.529865 3.86135,-2.073786 8.5e-4,-1.30651 -0.32328,-2.209845 -1.08147,-3.014854 -0.80211,-0.851644 -1.57915,-1.009291 -3.24933,-0.659231 -3.040168,0.637203 -3.557362,-0.472508 -2.416907,-5.18581 0.304492,-1.258416 0.608256,-2.378872 0.675031,-2.4899 0.09014,-0.149883 0.654286,-0.137441 2.190646,0.04832 5.73407,0.693283 6.6622,0.712498 7.70292,0.159457 0.86775,-0.461124 0.80461,-1.280947 -0.25659,-3.331468 -0.69786,-1.348452 -0.7468,-1.673921 -0.36563,-2.431392 0.70961,-1.410124 3.31533,-1.588355 4.80267,-0.3285 0.85336,0.722838 1.06262,1.55967 0.70803,2.831453 -0.37585,1.34803 -0.49677,2.878168 -0.26294,3.327158 0.32673,0.627365 1.18432,0.65074 3.90146,0.106339 1.37182,-0.274856 2.53837,-0.454381 2.59231,-0.398944 0.15951,0.163911 1.12804,4.000051 1.48394,5.877555 0.39329,2.074779 0.41495,3.121938 0.0815,3.941973 -0.3978,0.978373 -0.75814,0.977593 -3.20649,-0.0069 -1.31206,-0.527609 -2.54749,-0.07105 -3.15167,1.164706 -0.4348,0.889324 -0.40913,2.812952 0.0499,3.737532 0.72202,1.454366 1.99397,1.746187 3.93162,0.902033 1.60389,-0.698743 2.09148,-0.807098 2.20951,-0.491015 0.0526,0.140961 -0.18902,1.161203 -0.53702,2.267204 -0.34799,1.106 -0.68421,2.459571 -0.74714,3.007934 l -0.11444,0.997027 -1.36057,-0.416732 c -1.78606,-0.547057 -4.00588,-0.856971 -5.01946,-0.700778 -1.84217,0.283881 -1.96778,1.496661 -0.41032,3.961504 0.85176,1.347999 1.05969,2.506903 0.55301,3.082241 -0.87534,0.993958 -2.52593,1.16266 -3.99834,0.408659 z"
     id="path512" />
  <path
     style="fill:#3a27ff;stroke-width:1.05046;stroke-linecap:round"
     d="m 131.73096,29.935447 c 0.1003,-0.19259 0.5659,-0.823756 1.03467,-1.402589 1.22972,-1.518485 1.55707,-2.140744 1.5578,-2.961318 0.002,-1.778374 -2.26184,-2.369941 -4.62072,-1.207664 -1.49789,0.738045 -2.11424,1.894937 -2.11424,3.968455 0,0.925862 -0.0698,1.253233 -0.31584,1.482077 -0.45469,0.422857 -0.67601,0.3839 -3.01555,-0.530834 -1.81271,-0.708744 -2.33518,-0.836438 -3.71987,-0.909161 -1.56529,-0.08221 -1.6082,-0.09588 -1.51384,-0.482211 0.44718,-1.830931 0.57292,-5.146601 0.25383,-6.6936 -0.58488,-2.835634 -2.05513,-3.718118 -4.69213,-2.816345 -1.63619,0.559527 -2.59035,0.231595 -3.27046,-1.124017 -0.45778,-0.912467 -0.49623,-2.600785 -0.0779,-3.422935 0.67194,-1.320723 1.75816,-1.457606 3.70845,-0.467331 1.61824,0.821665 2.84662,0.973575 3.51137,0.434237 0.82415,-0.66867 1.03516,-2.568444 0.60863,-5.4794948 l -0.21454,-1.464193 h 10.47429 10.47428 l -0.15028,0.931759 c -0.16768,1.03967 -0.10426,1.797061 0.39408,4.7062758 0.18841,1.099856 0.29536,2.078203 0.23769,2.174105 -0.21788,0.362269 -0.77238,0.14409 -2.02731,-0.797684 -0.71239,-0.534627 -1.50438,-1.05375 -1.75996,-1.153606 -1.61522,-0.631066 -2.73178,0.424971 -2.71972,2.572313 0.007,1.246136 0.35501,2.250493 1.03454,2.985638 0.84843,0.91787 1.31224,1.060447 3.04579,0.936271 1.72184,-0.123338 2.15637,0.0039 2.73112,0.799651 0.58944,0.816108 0.40282,3.119954 -0.65602,8.098259 -0.0734,0.345048 -0.19598,0.399683 -0.902,0.401949 -1.00304,0.0032 -2.48497,0.352286 -4.91569,1.157887 -2.19451,0.727313 -2.64786,0.777612 -2.38043,0.264106 z"
     id="path514" />
  <path
     style="fill:#3a27ff;stroke-width:1.05046;stroke-linecap:round"
     d="m 93.219963,35.877562 c -1.01929,-0.373134 -1.53692,-0.841156 -1.81076,-1.637243 -0.22591,-0.656776 -0.21515,-0.811332 0.12954,-1.859949 0.48744,-1.482933 0.49546,-2.778121 0.021,-3.397932 -0.75055,-0.98053 -3.34931,-1.256023 -7.07154,-0.749647 -0.99739,0.135686 -1.85229,0.20655 -1.89979,0.157475 -0.22301,-0.230428 -0.009,-3.120423 0.33066,-4.461907 0.53126,-2.099217 0.72396,-3.242462 0.60915,-3.614162 -0.16223,-0.525271 -0.88206,-0.383402 -2.41689,0.476343 -1.72675,0.967249 -2.54751,1.051445 -3.24661,0.333047 -1.1149,-1.145694 -1.03438,-3.314207 0.17411,-4.6888 0.76767,-0.873182 1.46533,-1.029732 2.83943,-0.637146 1.46286,0.417944 2.28192,0.378115 2.8663,-0.139382 0.46946,-0.415728 0.48403,-0.480795 0.46685,-2.085366 -0.0147,-1.371128 -0.12983,-2.038157 -0.6689,-3.8747228 -0.35815,-1.220161 -0.68954,-2.358238 -0.73642,-2.529061 -0.0805,-0.293344 0.49592,-0.310586 10.38372,-0.310586 5.75794,0 10.469427,0.0599 10.469977,0.133108 6e-4,0.07321 0.0792,0.612299 0.17477,1.197976 0.23772,1.456819 0.23454,3.8746128 -0.006,4.6238758 -0.24382,0.759273 -1.02066,1.226595 -1.77967,1.0706 -0.28927,-0.05945 -1.21881,-0.436072 -2.065647,-0.836935 -1.25711,-0.595078 -1.66688,-0.711311 -2.23273,-0.633319 -1.37793,0.189924 -2.18124,1.645302 -1.98525,3.596719 0.11762,1.171129 0.53983,1.974571 1.32245,2.516545 0.72002,0.498617 1.43182,0.504897 2.965587,0.02616 2.12472,-0.663188 3.24679,-0.03195 3.8673,2.175604 0.47993,1.707394 0.38254,5.451029 -0.19422,7.465863 -0.14445,0.504636 -1.20973,0.669032 -4.341987,0.670073 -2.79269,8.65e-4 -3.00185,0.02425 -3.34081,0.372579 -0.46548,0.478335 -0.3492,1.196351 0.46171,2.851096 0.7622,1.555309 0.79126,2.455314 0.10216,3.163441 -0.81426,0.836748 -2.14121,1.081837 -3.38738,0.625651 z"
     id="path516" />
  <path
     style="fill:#3a27ff;stroke-width:1.05046;stroke-linecap:round"
     d="m 115.09557,53.527022 c -1.47479,-0.461042 -2.23213,-1.57516 -1.90899,-2.808329 0.0988,-0.377234 0.52751,-1.207838 0.95259,-1.845787 1.38483,-2.078362 1.41072,-3.304954 0.0865,-4.10156 -1.46307,-0.880165 -4.28599,-0.103257 -5.14004,1.41461 -0.37161,0.660462 -0.39007,0.83246 -0.28671,2.671674 0.0997,1.774727 0.0754,2.036306 -0.24987,2.691592 -0.7331,1.476668 -2.28562,2.102004 -4.82909,1.945085 -0.91862,-0.05667 -2.01995,-0.213167 -2.4474,-0.347763 l -0.77719,-0.244724 0.0436,-0.875243 c 0.0239,-0.481383 0.31542,-1.766335 0.64765,-2.855448 0.33224,-1.089113 0.60407,-2.227189 0.60407,-2.52906 0,-0.493709 -0.053,-0.548856 -0.5276,-0.548856 -0.29018,0 -1.0868,0.247687 -1.770257,0.550413 -1.38882,0.615144 -2.27593,0.718554 -2.95595,0.344573 -1.09509,-0.602262 -1.62017,-2.668976 -1.06063,-4.174605 0.56847,-1.529628 1.80405,-1.894269 3.62089,-1.068589 1.332687,0.60566 2.209277,0.591251 2.699387,-0.04437 0.3484,-0.451815 0.37025,-0.633061 0.29428,-2.440322 -0.0653,-1.553022 -0.24057,-2.57833 -0.85714,-5.013751 -0.42629,-1.683822 -0.71852,-3.061495 -0.6494,-3.061495 0.0691,0 1.24318,-0.127129 2.60902,-0.282508 3.54809,-0.403638 5.18125,-0.15679 5.99486,0.906108 0.46379,0.605906 0.47044,1.159691 0.0312,2.59956 -0.45029,1.476165 -0.43923,2.262026 0.0423,3.006692 1.04333,1.613332 4.09179,1.912919 5.3821,0.528924 0.79969,-0.857745 0.78417,-1.755383 -0.0611,-3.533007 -0.714,-1.501631 -0.87591,-2.379559 -0.48659,-2.638492 0.11873,-0.07897 1.65368,-0.146695 3.41098,-0.150503 1.7573,-0.0038 3.3426,-0.07678 3.52288,-0.162166 0.29198,-0.138291 0.31581,-0.09877 0.21825,0.361876 -0.36216,1.709969 -0.51364,4.401384 -0.32797,5.827339 0.46885,3.600876 1.94687,4.528797 4.87196,3.05865 1.47881,-0.743258 2.01685,-0.799435 2.66199,-0.27795 0.6884,0.556442 1.00428,1.332357 1.00428,2.466809 0,1.833459 -1.05132,3.194635 -2.46859,3.19615 -0.34134,4.16e-4 -1.0724,-0.159066 -1.62458,-0.354292 -1.19139,-0.421218 -2.45591,-0.458756 -2.97075,-0.08819 -0.58377,0.42018 -0.76057,1.297224 -0.88529,4.391664 l -0.11625,2.88438 -0.9499,0.334953 c -1.11605,0.393543 -4.41472,0.557596 -5.34763,0.265956 z"
     id="path518" />
  <path
     style="fill:#3a27ff;stroke-width:1.05046;stroke-linecap:round"
     d="m 145.20634,60.395868 c -1.41251,-0.645133 -1.7241,-1.74524 -1.05676,-3.731072 0.54581,-1.624176 0.55956,-2.067792 0.0947,-3.054521 -0.28103,-0.596569 -0.55463,-0.85808 -1.27851,-1.222021 -1.58661,-0.797698 -4.4983,-0.773723 -6.88975,0.05673 l -0.88678,0.307941 0.0441,-2.309358 c 0.0618,-3.24166 0.15227,-3.780752 0.73464,-4.379205 0.60289,-0.619541 0.89581,-0.623984 2.81835,-0.04275 1.88066,0.568574 2.51527,0.487663 3.41331,-0.435184 1.30695,-1.343044 1.36915,-4.008949 0.12148,-5.206638 -0.75138,-0.721274 -1.75398,-0.684983 -3.39438,0.122868 -1.68885,0.831715 -2.46336,0.835885 -3.21463,0.01731 -0.78014,-0.85003 -1.1273,-2.261547 -1.1273,-4.583399 0,-1.654248 0.35629,-4.466878 0.5972,-4.714445 0.20982,-0.215614 1.87448,-0.237148 2.71329,-0.0351 0.50647,0.121994 1.72853,0.534888 2.71569,0.917546 3.01209,1.167587 3.63803,0.893725 3.64292,-1.593858 0.003,-1.412586 0.20526,-1.976861 0.9802,-2.731631 1.18991,-1.158943 3.36074,-1.572893 4.50119,-0.858325 1.12887,0.707315 0.87992,1.803448 -0.88791,3.909356 -1.04546,1.245385 -1.33263,1.895655 -0.9457,2.1414 0.28848,0.183213 0.52134,0.129245 3.25894,-0.755302 1.94614,-0.628817 4.73109,-1.202189 4.91605,-1.012129 0.04,0.04114 -0.16609,1.311557 -0.45803,2.823165 -0.65026,3.366797 -0.76581,6.533437 -0.26701,7.317107 0.47596,0.747806 1.29584,0.810385 2.77854,0.212073 1.42204,-0.573836 2.21667,-0.609259 2.85893,-0.127445 1.37391,1.030688 1.47085,3.975523 0.16795,5.102118 -0.69513,0.601072 -1.6881,0.595284 -3.01929,-0.01758 -2.48682,-1.144916 -2.69952,-0.975132 -2.05079,1.636978 0.5333,2.147341 0.5571,4.101703 0.0562,4.616424 -0.48136,0.494658 -2.16939,0.774684 -4.68753,0.77761 -1.31235,0.0017 -2.53642,0.08545 -2.72015,0.186493 -0.53064,0.291835 -0.4299,1.356626 0.27042,2.858305 0.33246,0.712893 0.60418,1.538017 0.60383,1.83361 -7.6e-4,0.751533 -0.5395,1.577123 -1.2572,1.9271 -0.73163,0.356772 -2.41183,0.381257 -3.14621,0.04585 z"
     id="path520" />
  <path
     style="fill:#3a27ff;stroke-width:1.05046;stroke-linecap:round"
     d="m 164.21458,36.402106 c -0.91365,-0.291532 -1.97107,-1.140681 -2.34448,-1.882709 -0.17234,-0.342478 -0.28093,-1.133248 -0.31106,-2.265097 -0.0845,-3.173951 -0.64018,-3.597616 -4.8203,-3.674832 -1.51481,-0.02798 -2.79545,-0.09326 -2.84586,-0.145056 -0.0504,-0.0518 0.13201,-1.193875 0.40538,-2.537942 0.60476,-2.973497 0.68054,-5.370817 0.19308,-6.10848 -0.48346,-0.731623 -1.15235,-0.927662 -2.73679,-0.802104 -1.98795,0.157533 -2.92042,-0.284517 -3.63494,-1.723182 -0.69858,-1.40657 -0.56658,-3.510026 0.25749,-4.103164 0.69934,-0.503371 1.55614,-0.337768 2.74378,0.530316 1.45619,1.064382 2.4616,1.586322 2.79925,1.453176 0.36753,-0.14493 0.35272,-0.818636 -0.0706,-3.212087 -0.34872,-1.9714648 -0.42918,-3.5193078 -0.23485,-4.5178038 l 0.10794,-0.554618 h 10.5136 10.5136 V 17.616637 28.37475 l -0.38859,-0.115029 c -0.21373,-0.06326 -1.25681,-0.249243 -2.31798,-0.413282 -1.61186,-0.249169 -2.18402,-0.265221 -3.47675,-0.09754 -1.63073,0.21152 -2.83567,0.704413 -3.13714,1.28328 -0.25778,0.494964 -0.21926,1.555168 0.08,2.203318 0.14219,0.307909 0.60928,0.998832 1.03798,1.535386 0.42869,0.536553 0.90521,1.313369 1.05892,1.726262 0.25982,0.697879 0.25875,0.783235 -0.0152,1.2128 -0.5759,0.903223 -1.87832,1.17021 -3.37651,0.692164 z"
     id="path522" />
  <path
     style="fill:#3a27ff;stroke-width:1.05046;stroke-linecap:round"
     d="m 177.58593,76.811438 c -1.82277,-0.264479 -2.51715,-0.883388 -2.24215,-1.998466 0.0542,-0.219629 0.45037,-0.948984 0.88045,-1.620789 0.97318,-1.520109 1.18267,-2.232549 0.90554,-3.079492 -0.28849,-0.881614 -1.09257,-1.290088 -2.53516,-1.287866 -1.39205,0.0021 -2.69792,0.572511 -3.30133,1.441919 -0.38117,0.549198 -0.41513,0.769002 -0.42127,2.72708 -0.004,1.171354 -0.0231,2.233642 -0.0432,2.360639 -0.0758,0.479873 -1.19691,0.745074 -3.18287,0.752954 -1.80077,0.0072 -2.5953,0.09672 -3.7854,0.426764 l -0.45522,0.126247 0.15772,-0.857175 c 0.17168,-0.933059 -0.009,-2.560113 -0.44942,-4.051776 -0.33787,-1.143763 -0.33884,-1.68604 -0.003,-1.68604 0.14458,0 0.78575,0.250997 1.42485,0.557772 0.85313,0.409518 1.42936,0.56283 2.16795,0.576803 0.94782,0.01794 1.03957,-0.01862 1.58716,-0.63225 1.40121,-1.570213 1.1571,-4.619458 -0.44031,-5.499815 -0.80589,-0.444144 -1.53721,-0.41086 -2.77964,0.126511 -1.33934,0.579292 -2.13981,0.532001 -2.63748,-0.155817 -0.53727,-0.742556 -0.46639,-2.70501 0.23829,-6.598007 l 0.57827,-3.194604 2.95095,0.09184 c 3.06938,0.09552 3.33373,0.158344 4.07009,0.967242 0.38873,0.427031 0.43682,0.65506 0.52056,2.468251 0.068,1.471848 0.1709,2.121077 0.39097,2.466223 0.83183,1.304608 2.27828,2.077388 3.89316,2.079961 1.71316,0.0028 2.45251,-0.548976 2.45251,-1.830058 0,-0.606213 -0.1221,-0.826022 -1.77561,-3.196585 -0.35916,-0.514907 -0.6993,-1.229277 -0.75587,-1.587495 -0.0904,-0.572592 -0.032,-0.724095 0.48328,-1.253618 0.72277,-0.742736 1.76988,-1.004406 4.01927,-1.004406 1.54937,0 2.69446,0.150783 4.10117,0.540032 l 0.66337,0.183561 V 65.99029 76.809604 l -1.16577,8.65e-4 c -0.64118,6.24e-4 -1.90411,0.03568 -2.80651,0.07816 -0.9024,0.04248 -2.11981,0.0077 -2.70535,-0.07724 z"
     id="path524" />
  <path
     style="fill:#3a27ff;stroke-width:1.05046;stroke-linecap:round"
     d="m 136.28257,153.80368 c -0.84169,-0.15409 -1.70374,-0.57384 -2.2748,-1.10762 -0.78808,-0.73664 -0.93891,-1.2984 -0.95837,-3.56944 -0.017,-1.98501 -0.0511,-2.19064 -0.4884,-2.95522 -0.34215,-0.5981 -0.66039,-0.9 -1.16927,-1.10923 -0.85777,-0.3527 -2.50258,-0.36617 -3.88586,-0.0318 -0.56915,0.13756 -1.07433,0.20932 -1.1226,0.15946 -0.0483,-0.0499 -0.0876,-0.62924 -0.0873,-1.2875 4.1e-4,-1.07469 0.0854,-1.37162 0.833,-2.90909 0.45789,-0.94172 0.78341,-1.79392 0.72336,-1.89377 -0.14149,-0.23525 -1.22496,-0.2319 -2.30968,0.007 -1.21794,0.26841 -2.09367,-0.01 -2.8362,-0.90131 -1.21178,-1.45481 -1.32561,-3.57066 -0.25526,-4.74483 0.60786,-0.66682 1.4334,-0.53838 2.91544,0.4536 1.4689,0.98317 1.78057,1.12692 2.13784,0.98603 0.42933,-0.1693 0.30342,-1.37636 -0.44177,-4.23491 -0.70402,-2.7006 -1.0068,-5.13909 -0.78737,-6.34107 0.10687,-0.58538 0.17881,-0.64337 1.14326,-0.92145 0.59421,-0.17134 2.12113,-0.35258 3.61273,-0.42884 2.15221,-0.11003 2.64235,-0.1868 2.93594,-0.45983 0.49289,-0.45839 0.60201,-1.29847 0.35393,-2.72496 -0.25746,-1.48047 -0.0813,-2.19558 0.74315,-3.01674 1.38989,-1.38434 4.04163,-1.45995 4.88373,-0.13925 0.43759,0.68629 0.22402,1.54326 -0.75621,3.03428 -0.99027,1.50629 -1.2224,2.38443 -0.80386,3.04085 0.56961,0.89335 1.22986,1.02986 5.17832,1.07065 1.99477,0.0206 3.68515,0.041 3.75639,0.0454 0.0712,0.005 0.12953,4.86932 0.12953,10.81093 v 10.80293 l -0.64765,0.11469 c -0.35621,0.0631 -2.12431,0.19251 -3.92911,0.28764 -4.53649,0.2391 -5.74326,0.55424 -6.00101,1.56708 -0.13641,0.53602 0.30313,1.58903 1.03659,2.48337 1.89717,2.3133 1.68812,3.60278 -0.64859,4.00061 -0.14248,0.0243 -0.58343,-0.0153 -0.97988,-0.0879 z"
     id="path526" />
  <path
     style="fill:#3a27ff;stroke-width:1.05046;stroke-linecap:round"
     d="m 134.76204,79.652964 c -0.32705,-0.336082 -0.33174,-0.394895 -0.0813,-1.020498 0.14613,-0.365123 0.43641,-0.903458 0.64508,-1.196296 1.30403,-1.830109 1.5104,-2.254739 1.5104,-3.107923 0,-0.732607 -0.0742,-0.917983 -0.52322,-1.306187 -1.26531,-1.094107 -3.90097,-0.731317 -5.19582,0.71519 -0.66925,0.747623 -0.87404,1.559998 -0.74159,2.941907 0.15181,1.584157 -0.089,2.194057 -0.97373,2.466462 -0.54764,0.168604 -1.10462,0.124258 -3.33397,-0.265449 -1.47207,-0.257329 -3.18436,-0.467872 -3.80508,-0.467872 h -1.12858 l 0.50526,-1.157212 c 0.72964,-1.671161 1.03467,-2.849766 1.03467,-3.997925 0,-1.843217 -0.77279,-2.320738 -3.64212,-2.250528 -1.5347,0.03755 -1.69685,0.0073 -2.35385,-0.438682 -1.82675,-1.240109 -2.28055,-4.79653 -0.72145,-5.653977 0.59693,-0.328297 1.46591,-0.02909 2.67014,0.919404 1.85396,1.460228 2.68298,1.663319 3.02426,0.74088 0.23516,-0.635609 0.19687,-1.470312 -0.18969,-4.134973 -0.19118,-1.317774 -0.39597,-3.121104 -0.4551,-4.007398 l -0.10751,-1.611447 1.1899,-0.38835 c 3.23147,-1.054664 6.37446,-0.757169 7.5821,0.717676 0.54408,0.664462 0.57645,1.876838 0.0843,3.159785 -0.41139,1.072524 -0.44511,2.304209 -0.0828,3.024196 0.52267,1.038653 2.53857,1.655939 4.04465,1.238508 0.43855,-0.121548 1.01148,-0.464006 1.33849,-0.800038 0.49866,-0.512441 0.57173,-0.703953 0.57173,-1.498563 0,-0.608228 -0.13705,-1.189274 -0.41231,-1.748157 -0.22678,-0.460416 -0.51211,-1.179988 -0.63406,-1.599049 -0.37005,-1.27163 -0.19657,-1.346672 3.42703,-1.482466 1.6828,-0.06306 3.23184,-0.171492 3.4423,-0.240952 0.3688,-0.121721 0.37894,-0.09407 0.28006,0.76394 -0.13765,1.194321 0.18207,3.310338 0.89716,5.937768 1.13565,4.172628 1.04169,4.432035 -1.0881,3.004064 -1.5572,-1.044058 -2.34689,-1.257329 -3.12485,-0.843923 -0.76025,0.404005 -1.08174,1.155869 -1.08174,2.529928 0,1.607175 0.61144,2.893545 1.68173,3.538101 0.80882,0.487088 1.15186,0.500867 3.56428,0.143145 0.56642,-0.08399 0.82036,-0.05928 0.82036,0.07983 0,0.11081 -0.33031,0.84938 -0.73401,1.641269 -0.69865,1.370433 -0.73401,1.513607 -0.73401,2.971843 v 1.532046 l -1.29531,0.409656 c -1.82018,0.57565 -4.1142,1.090529 -4.879,1.095067 -0.42218,0.0025 -0.76848,-0.120318 -0.9947,-0.352796 z"
     id="path528" />
  <path
     style="fill:#3a27ff;stroke-width:1.05046;stroke-linecap:round"
     d="m 93.546593,85.583657 c -0.82074,-0.365752 -1.33555,-0.895579 -1.5653,-1.61097 -0.16387,-0.510236 -0.12616,-0.7963 0.25405,-1.927731 0.54792,-1.630493 0.56028,-2.235251 0.0579,-2.832359 -0.53538,-0.636302 -1.83522,-0.797692 -4.96716,-0.616729 -1.37636,0.07953 -2.94895,0.09935 -3.49466,0.04406 l -0.99221,-0.100528 0.10464,-1.439006 c 0.0677,-0.932019 0.007,-2.155568 -0.17359,-3.472871 -0.39668,-2.899912 -0.37329,-3.475123 0.16378,-4.027024 0.40341,-0.414549 0.51273,-0.440961 1.25214,-0.302519 0.44558,0.08343 1.31532,0.151684 1.93275,0.151684 1.35568,0 1.83593,-0.303192 2.53006,-1.597301 0.83144,-1.550085 0.58683,-3.824979 -0.49501,-4.603653 -0.7475,-0.538031 -1.67833,-0.356666 -3.25867,0.634921 -0.95956,0.602076 -1.65816,0.918657 -2.05612,0.931761 -0.55548,0.01829 -0.61513,-0.03109 -0.76068,-0.629763 -0.11305,-0.464993 -0.0518,-1.448536 0.2155,-3.460819 0.20538,-1.546166 0.37282,-3.036222 0.37208,-3.311236 -7.6e-4,-0.394073 0.0627,-0.480066 0.3009,-0.405835 1.68238,0.52429 4.39542,0.672092 5.6733,0.309071 2.15196,-0.611331 3.09994,-2.322486 2.66189,-4.804885 -0.13129,-0.74402 -0.13513,-1.278145 -0.0125,-1.745894 0.71815,-2.740618 5.88264,-3.266527 5.88264,-0.599037 0,0.514451 -0.19504,0.98653 -0.78822,1.907887 -0.97626,1.516348 -1.28428,2.244929 -1.28428,3.037731 0,2.321822 3.47798,3.342131 7.492787,2.198108 l 1.1426,-0.325586 0.002,1.262884 c 7.6e-4,0.694586 0.15644,2.292275 0.34542,3.550421 0.34103,2.270532 0.43996,4.258243 0.23875,4.797062 -0.18739,0.501822 -0.88838,0.298363 -2.00666,-0.582416 -1.45845,-1.148719 -2.0509,-1.444065 -2.896707,-1.444065 -1.3401,0 -2.00455,1.472247 -1.58761,3.517693 0.23669,1.161165 0.73585,2.017551 1.5466,2.653465 0.5798,0.454774 0.752147,0.48967 2.830037,0.573003 2.13685,0.0857 2.22903,0.105626 2.69085,0.581716 0.42572,0.438864 0.4761,0.614202 0.45895,1.597303 -0.02,1.142631 -0.70898,3.288407 -1.46006,4.546758 l -0.35979,0.602788 -3.13908,-0.121038 c -2.720317,-0.104891 -3.190917,-0.08334 -3.527667,0.161557 -0.56536,0.411141 -0.50011,1.295076 0.21588,2.924637 0.95878,2.182117 0.77708,3.244281 -0.67054,3.91982 -0.85628,0.399599 -2.0468,0.423222 -2.86874,0.05693 z"
     id="path530" />
  <path
     style="fill:#3a27ff;stroke-width:1.05046;stroke-linecap:round"
     d="m 50.091426,79.097718 c -1.092379,-0.285552 -2.628763,-0.568553 -3.414188,-0.628895 -1.267826,-0.0974 -1.436523,-0.151531 -1.503603,-0.482443 -0.379385,-1.871532 -0.845611,-5.425099 -0.855586,-6.52125 -0.01,-1.096729 0.05068,-1.428223 0.316664,-1.73041 0.466692,-0.530224 0.918855,-0.470432 2.54187,0.336116 2.202717,1.094629 3.215928,0.948402 3.971299,-0.57314 0.288162,-0.580441 0.346998,-0.96303 0.291598,-1.89616 -0.166405,-2.802923 -1.619773,-3.863664 -4.18026,-3.050968 -2.228048,0.70718 -3.207703,0.379614 -3.532347,-1.181103 -0.228454,-1.098283 0.08923,-2.999659 0.830018,-4.967804 L 45.108,56.937469 h 1.46265 c 0.804458,0 2.46155,-0.125148 3.682425,-0.278106 2.426201,-0.303968 3.31938,-0.200293 3.893804,0.451966 0.265221,0.301161 0.290543,0.515709 0.172904,1.464941 -0.263627,2.127242 -0.191498,2.885174 0.343126,3.60546 0.678582,0.914238 1.800186,1.402495 3.200378,1.393191 1.362053,-0.0091 2.150111,-0.386238 2.533608,-1.212651 0.374365,-0.806733 0.211653,-1.546125 -0.669968,-3.044436 -1.674411,-2.845657 -1.411279,-3.682695 1.148069,-3.652075 1.022705,0.01224 5.152777,0.906107 5.410547,1.171005 0.0346,0.03551 -0.063,1.011102 -0.21665,2.167995 -0.363324,2.734643 -0.508346,4.879716 -0.368581,5.451965 0.256561,1.050449 1.144101,0.948828 3.274441,-0.374912 1.44814,-0.899843 1.99946,-1.04142 2.66928,-0.685472 1.60426,0.852504 1.33159,4.374073 -0.43054,5.560553 -0.50084,0.337224 -1.30471,0.37416 -3.08864,0.141913 -1.97943,-0.2577 -2.335,0.421526 -1.90079,3.631042 0.27594,2.039599 0.36517,4.878509 0.16979,5.401719 -0.0832,0.222715 -0.38261,0.280731 -1.448918,0.280731 -0.888644,0 -1.891901,0.150575 -2.960739,0.444362 -2.948346,0.810405 -3.25514,0.871265 -3.439091,0.682233 -0.116587,-0.119806 0.08333,-0.699743 0.607345,-1.76183 1.186594,-2.405027 1.021439,-3.775925 -0.535427,-4.444392 -0.759444,-0.326078 -2.338651,-0.310498 -3.134019,0.03092 -1.590409,0.682698 -2.135294,1.887257 -1.664546,3.679761 0.436746,1.663048 0.477723,2.057226 0.24394,2.346698 -0.324331,0.401587 -1.70527,0.299927 -3.970972,-0.292335 z"
     id="path532" />
  <path
     style="fill:#3a27ff;stroke-width:1.05046;stroke-linecap:round"
     d="M 11.975368,79.496058 C 11.167958,79.312874 10.177046,79.02535 9.7733405,78.857116 l -0.734009,-0.30588 V 67.752715 56.954193 l 0.8852,0.107735 c 0.4868605,0.05925 2.2160995,0.005 3.8427535,-0.120587 2.644302,-0.204135 3.026811,-0.198311 3.611426,0.05499 0.866906,0.37562 1.20409,1.1755 1.052873,2.49766 -0.163805,1.432222 0.03252,2.160611 0.818508,3.036865 0.819337,0.913425 1.849893,1.328246 3.29981,1.328246 1.648374,0 2.378569,-0.571204 2.378569,-1.860663 0,-0.764474 -0.317361,-1.439859 -1.293984,-2.753762 -0.914566,-1.230416 -1.123928,-1.639619 -1.123928,-2.196743 0,-1.078408 1.53871,-1.26353 5.202772,-0.625944 1.175526,0.204554 2.157868,0.392054 2.182982,0.41667 0.02512,0.02461 -0.149745,0.483366 -0.388579,1.019452 -0.577082,1.295329 -1.125102,3.543348 -1.125102,4.615259 0,1.004795 0.310111,1.859999 0.855745,2.359916 0.477802,0.437767 1.963459,0.447771 3.095077,0.02084 0.415647,-0.156812 1.104829,-0.285114 1.531513,-0.285114 0.667513,0 0.867061,0.09379 1.429707,0.671977 2.003036,2.058356 0.759438,6.000059 -1.636627,5.187447 -0.328162,-0.111295 -1.008199,-0.435501 -1.511195,-0.72046 -0.89177,-0.505209 -2.052068,-0.686617 -2.486233,-0.388712 -0.715496,0.490946 -0.757891,2.090702 -0.155385,5.863453 0.237474,1.487002 0.43177,2.846428 0.43177,3.020946 0,0.266323 -0.298299,0.365889 -1.856611,0.619691 -2.703992,0.440399 -3.753323,0.406882 -4.282374,-0.136781 -0.549325,-0.564494 -0.534624,-0.95402 0.107925,-2.859668 0.77294,-2.292356 0.509494,-3.418813 -0.985338,-4.213171 -1.308367,-0.695267 -3.516062,-0.449478 -4.371961,0.486745 -0.674085,0.737349 -0.685361,1.956841 -0.03137,3.392978 0.919352,2.018871 0.598295,3.202181 -1.057779,3.898623 -1.108746,0.46627 -3.672955,0.514884 -5.484124,0.103969 z"
     id="path534" />
  <path
     style="fill:#3a27ff;stroke-width:1.05046;stroke-linecap:round"
     d="m 17.579399,118.69474 c -1.226661,-0.58997 -1.187247,-1.83461 0.108991,-3.44173 1.117172,-1.3851 1.423459,-1.99614 1.36368,-2.72055 -0.03897,-0.47217 -0.189078,-0.75684 -0.54107,-1.02605 -0.455889,-0.34868 -0.74123,-0.3762 -4.447233,-0.42895 l -3.960086,-0.0564 v -10.74612 c 0,-10.154571 0.01664,-10.740571 0.302239,-10.645121 2.549336,0.85205 2.725174,0.88232 5.224418,0.8994 2.221809,0.0152 2.595154,-0.026 3.310064,-0.36561 0.443188,-0.2105 0.948359,-0.60655 1.122602,-0.88011 0.461635,-0.72479 0.398142,-2.07157 -0.149642,-3.174112 -0.647918,-1.304087 -0.733511,-1.90857 -0.378962,-2.676363 0.776658,-1.681887 3.988388,-1.770449 5.233139,-0.1443 0.471276,0.615678 0.472634,1.72709 0.0035,2.850318 -0.410701,0.983277 -0.602526,2.298927 -0.435126,2.984327 0.251465,1.02959 1.836414,1.19084 5.201518,0.52921 0.726889,-0.14291 1.392499,-0.25985 1.479133,-0.25985 0.08663,0 0.159053,0.61895 0.160936,1.37545 0.0048,1.92828 0.287957,3.7284 0.692213,4.40057 0.548606,0.91218 1.645358,1.21089 3.540542,0.96432 2.035939,-0.2649 3.086048,0.2453 3.814698,1.85334 0.280524,0.61909 0.408973,1.22376 0.410131,1.93072 0.0041,2.456741 -1.442188,3.068831 -3.482803,1.474061 -1.845189,-1.442041 -3.01265,-1.627201 -3.678218,-0.58336 -0.424607,0.66594 -0.733697,2.60212 -0.940118,5.88903 -0.275567,4.38792 -0.245294,4.27133 -1.201359,4.62676 -0.550816,0.20478 -1.658125,0.33322 -3.562561,0.41325 -1.751588,0.0736 -2.910958,0.20089 -3.166543,0.34762 -0.635242,0.3647 -0.884098,1.22128 -0.842677,2.90052 0.03362,1.36298 -0.0049,1.56241 -0.429205,2.22205 -0.913571,1.42028 -3.323628,2.17475 -4.752183,1.48766 z"
     id="path536" />
  <path
     style="fill:#3a27ff;stroke-width:1.05046;stroke-linecap:round"
     d="m 58.830283,110.95439 c 0,-0.12818 0.349735,-0.93738 0.777186,-1.79822 0.886528,-1.78539 1.008337,-2.76575 0.436468,-3.51284 -1.134587,-1.48224 -4.448697,-1.34268 -5.540739,0.23332 -0.546543,0.78874 -0.586981,1.54078 -0.16579,3.08328 0.34761,1.27302 0.355715,1.40813 0.100217,1.67068 -0.255499,0.26255 -0.39988,0.25158 -1.785414,-0.13581 -4.771974,-1.33422 -4.54852,-1.29038 -6.145281,-1.2057 l -1.529104,0.0811 0.10453,-1.08801 c 0.05749,-0.5984 0.182072,-2.26726 0.276847,-3.70859 0.189991,-2.88941 0.38406,-4.01332 0.825625,-4.781481 0.549872,-0.95657 1.510907,-0.83657 3.04583,0.380321 1.45494,1.15349 2.600646,1.39108 3.439251,0.71321 1.56795,-1.267421 0.6487,-5.267171 -1.414093,-6.152861 -0.446581,-0.19175 -1.040385,-0.22476 -2.506965,-0.13936 -1.740777,0.10136 -1.973852,0.0781 -2.474691,-0.24689 -0.866754,-0.56244 -1.094507,-1.22387 -1.27768,-3.71065 -0.09072,-1.23169 -0.122983,-2.35182 -0.07169,-2.48918 0.132028,-0.35356 1.738927,-0.15165 4.801675,0.60332 2.754931,0.6791 3.332519,0.72837 3.884147,0.33132 0.464889,-0.33462 0.51303,-1.25508 0.124781,-2.385882 -0.551146,-1.605266 -0.154836,-2.879862 1.09998,-3.537701 1.442483,-0.756225 3.088645,-0.615503 4.022198,0.343835 0.717676,0.737496 0.654479,1.43998 -0.296168,3.292208 -0.432851,0.84336 -0.763157,1.70533 -0.734009,1.91549 0.04642,0.33474 0.160047,0.38074 0.916532,0.37104 0.474948,-0.006 1.781987,-0.26565 2.904533,-0.5768 1.237059,-0.3429 2.453065,-0.56573 3.087155,-0.56573 h 1.046167 l -0.141631,0.5768 c -0.07789,0.31724 -0.155958,1.93451 -0.173482,3.59393 -0.04783,4.53373 -0.02495,4.3145 -0.501603,4.8043 -0.50373,0.51764 -0.859256,0.47257 -2.365259,-0.2999 -1.324556,-0.6794 -2.143843,-0.78831 -2.905986,-0.3863 -1.687575,0.89015 -1.855592,4.229131 -0.28748,5.713081 0.694158,0.6569 1.839957,0.69591 3.468992,0.11812 1.133804,-0.40215 1.420656,-0.44383 1.910704,-0.27764 0.983501,0.33355 1.161517,1.17468 1.019057,4.81526 l -0.11547,2.95082 -1.130429,0.11902 c -0.621739,0.0654 -2.074749,0.43471 -3.228914,0.82058 -2.312374,0.77307 -2.5,0.80823 -2.5,0.46852 z"
     id="path538" />
  <path
     style="fill:#3a27ff;stroke-width:1.05046;stroke-linecap:round"
     d="m 79.969963,111.39982 c -1.66232,-0.43499 -3.1584,-0.79098 -3.32463,-0.7911 -0.27726,-1.9e-4 -0.30224,-0.27945 -0.30224,-3.37799 0,-2.51118 -0.0628,-3.53202 -0.24445,-3.97897 -0.45571,-1.12081 -1.31978,-1.2505 -3.42751,-0.51447 -1.1925,0.41644 -1.42457,0.44625 -2.02788,0.2605 -1.85232,-0.5703 -2.46718,-3.846951 -1.00404,-5.350521 0.70584,-0.72533 1.48541,-0.70169 3.10123,0.0941 1.45152,0.71483 2.22932,0.78763 2.71318,0.25393 0.47636,-0.52545 0.54159,-1.06493 0.56448,-4.66871 0.0112,-1.76923 0.0696,-3.43962 0.12954,-3.71199 l 0.1091,-0.4952 4.14499,-0.0724 c 4.60411,-0.0804 5.19005,0.01 5.58583,0.85941 0.21131,0.45362 0.18897,0.64858 -0.21385,1.86671 -0.24739,0.74811 -0.44952,1.63829 -0.44916,1.97817 0.002,1.49569 1.29308,2.47092 3.28081,2.47733 1.34514,0.004 2.15808,-0.36075 2.71671,-1.22005 0.54785,-0.84274 0.4949,-1.41361 -0.31085,-3.35161 -0.45432,-1.09274 -0.6676,-1.83499 -0.60313,-2.09897 0.15383,-0.62983 1.00983,-0.78571 3.26233,-0.59408 1.06129,0.0903 2.31159,0.11345 2.77844,0.0515 0.77768,-0.10324 0.83852,-0.0851 0.72586,0.21662 -0.45506,1.2186 -0.25124,2.96779 0.6043,5.18625 0.53068,1.37611 0.63412,2.17081 0.2821,2.16738 -0.11874,-0.002 -0.64334,-0.12001 -1.16578,-0.26411 -1.33902,-0.36933 -2.5206,-0.33963 -3.18129,0.08 -1.85636,1.17899 -1.97196,5.199141 -0.17172,5.972091 0.84868,0.3644 1.6719,0.20092 2.93702,-0.58327 1.33732,-0.82895 2.16636,-0.95609 2.55133,-0.39128 0.55636,0.81625 0.21563,3.18896 -1.05491,7.34597 l -0.4882,1.59731 -1.28918,0.13239 c -0.70906,0.0728 -2.28576,0.41688 -3.5038,0.76457 -2.50294,0.71446 -3.28175,0.74222 -3.36768,0.12003 -0.0306,-0.22155 0.1537,-1.03586 0.40956,-1.80958 0.5204,-1.57368 0.49002,-2.30752 -0.12901,-3.11622 -1.19106,-1.556 -4.77178,-1.51081 -5.56741,0.0703 -0.41863,0.83188 -0.32721,1.71257 0.33396,3.21736 0.689,1.56814 0.74448,2.04025 0.27041,2.30097 -0.58359,0.32096 -1.57345,0.18919 -4.67446,-0.62227 z"
     id="path540" />
  <path
     style="fill:#3a27ff;stroke-width:1.05046;stroke-linecap:round"
     d="m 120.46237,117.87081 c -1.02901,-0.25578 -1.85145,-0.78893 -2.3038,-1.49347 -0.4345,-0.67673 -0.45698,-0.81785 -0.41266,-2.59006 0.0397,-1.58758 -0.004,-1.95796 -0.28185,-2.42097 -0.66414,-1.10441 -2.31313,-1.48512 -6.45746,-1.49084 -1.40109,-0.002 -2.54744,-0.0522 -2.54744,-0.11182 0,-0.0595 0.26943,-0.99798 0.59874,-2.08536 1.25094,-4.13068 1.5164,-6.63641 0.78293,-7.39015 -0.51312,-0.527281 -1.03696,-0.440161 -2.66772,0.4437 -0.88125,0.47763 -1.70184,0.79865 -2.04147,0.79865 -2.27344,0 -2.63399,-4.143861 -0.48969,-5.628081 0.68882,-0.47678 1.34331,-0.50956 2.58835,-0.12961 1.19015,0.3632 1.98928,0.2874 2.0565,-0.19505 0.0278,-0.19919 -0.23685,-1.11764 -0.588,-2.041 -0.72538,-1.90748 -0.97063,-4.13651 -0.54597,-4.96217 0.32447,-0.63084 1.313,-0.65277 4.45925,-0.0989 4.95687,0.87262 5.45171,0.65726 5.3768,-2.340085 -0.0466,-1.863696 0.14422,-2.430388 1.04846,-3.114033 0.834,-0.630533 1.59362,-0.886899 2.62794,-0.886899 1.56383,0 2.55957,0.892517 2.2787,2.042492 -0.0597,0.24438 -0.44001,0.938966 -0.84517,1.543522 -1.60443,2.394063 -1.82134,3.044983 -1.22045,3.662483 0.45461,0.46715 2.771,0.24709 5.31962,-0.50536 1.13987,-0.33654 2.13197,-0.55719 2.20467,-0.49034 0.0727,0.0668 0.25466,0.71532 0.40438,1.44105 0.35678,1.72936 0.2462,3.42219 -0.29678,4.54363 -0.76251,1.57482 -2.02245,1.891 -4.18945,1.05133 -1.42957,-0.55393 -2.37564,-0.58469 -3.13576,-0.10193 -1.53448,0.97455 -1.72845,4.5233 -0.30991,5.669951 0.89548,0.72384 1.30829,0.68165 4.18581,-0.42785 1.654,-0.637751 2.16186,0.18551 2.42888,3.93728 0.19925,2.79959 0.3015,3.62568 0.55088,4.45117 0.0978,0.32378 0.14552,0.6219 0.10602,0.66251 -0.0395,0.0406 -0.3387,-0.006 -0.66487,-0.10241 -1.95205,-0.58006 -5.15616,-0.51553 -6.21151,0.12509 -1.21135,0.73532 -1.08083,2.44955 0.32666,4.29041 1.54487,2.02054 1.381,3.50854 -0.43403,3.94136 -0.75871,0.18092 -0.97894,0.18115 -1.7006,0.002 z"
     id="path542" />
  <path
     style="fill:#3a27ff;stroke-width:1.05046;stroke-linecap:round"
     d="m 101.15885,148.00638 c -1.982877,-0.49606 -2.822987,-1.94461 -2.283307,-3.93695 0.44311,-1.63587 0.48051,-2.07254 0.20201,-2.35872 -0.27613,-0.28376 -0.71135,-0.19262 -2.49547,0.52259 -0.76446,0.30646 -3.30545,0.47172 -3.54042,0.23026 -0.2847,-0.29257 -0.62386,-2.31481 -0.8495,-5.06516 -0.13831,-1.68599 -0.36109,-3.29692 -0.50482,-3.65041 -0.47606,-1.17086 -1.39377,-1.30863 -3.22253,-0.48381 -1.58572,0.7152 -2.28705,0.70242 -3.02419,-0.055 -1.60064,-1.64485 -0.92621,-4.89519 1.11113,-5.35501 0.30964,-0.0699 0.86026,0.03 1.50308,0.27281 1.4631,0.55252 2.54741,0.7606 3.25384,0.62441 0.86103,-0.16599 1.73671,-1.01544 2.06384,-2.00203 0.3476,-1.04831 0.35142,-3.32828 0.008,-4.82498 -0.14318,-0.62419 -0.231,-1.16504 -0.19515,-1.20187 0.13383,-0.13753 2.46991,-0.58558 3.06861,-0.58855 0.34204,-0.002 0.88606,0.0881 1.20896,0.19953 1.42739,0.49262 1.87335,1.46758 1.87859,4.10694 0.004,2.10954 0.17945,2.75284 0.972677,3.56993 1.11777,1.15138 3.5348,1.68826 4.72697,1.04996 1.2463,-0.66726 1.33438,-1.83948 0.25343,-3.37266 -1.72824,-2.45126 -1.9164,-2.94144 -1.32935,-3.46314 0.59894,-0.53227 1.57505,-0.69934 5.48348,-0.93853 2.18476,-0.1337 4.10829,-0.29711 4.27452,-0.36314 0.28581,-0.1135 0.30224,0.46477 0.30224,10.63639 v 10.75637 h -0.85184 c -0.4685,0 -2.20981,-0.2396 -3.86957,-0.53244 -3.27755,-0.57827 -5.37604,-0.68196 -5.89591,-0.29133 -0.4321,0.32468 -0.40922,1.14751 0.0556,1.99828 0.96023,1.7577 1.26148,2.5595 1.15276,3.06817 -0.24869,1.16357 -1.87412,1.84431 -3.45775,1.44814 z"
     id="path544" />
  <path
     style="fill:#3a27ff;stroke-width:1.05046;stroke-linecap:round"
     d="m 95.407785,178.37588 c -0.39524,-2.87714 -0.0256,-5.53093 0.85898,-6.16765 0.81304,-0.5852 1.64929,-0.26995 4.156805,1.56706 1.11596,0.81756 2.12465,1.02394 2.79582,0.57203 1.42575,-0.95998 1.14333,-4.26249 -0.49608,-5.80121 -0.62793,-0.58937 -1.04841,-0.68997 -3.087365,-0.73869 -1.38287,-0.033 -1.53945,-0.0746 -2.00232,-0.53053 -0.70314,-0.69271 -0.87772,-1.39882 -1.17215,-4.74091 -0.22654,-2.57144 -0.40464,-3.72906 -0.69119,-4.49242 -0.0575,-0.15341 0.23747,-0.19408 1.08445,-0.14948 0.95724,0.0504 1.46286,-0.0414 2.85158,-0.51808 0.928405,-0.31864 1.742575,-0.52328 1.809255,-0.45476 0.0666,0.0685 0.02,0.58118 -0.10387,1.13926 -0.55266,2.49102 -0.43109,3.49977 0.53329,4.42511 0.89211,0.856 2.987,1.20365 4.17621,0.69304 1.53856,-0.6606 1.6939,-2.02893 0.47057,-4.14496 -0.81131,-1.40337 -0.8565,-1.95678 -0.18806,-2.30306 0.65092,-0.3372 1.60026,-0.27982 4.87436,0.29458 1.64112,0.28792 3.50846,0.57848 4.14964,0.64568 l 1.16577,0.1222 v 10.80164 10.80165 H 106.07072 95.547965 Z"
     id="path546" />
  <path
     style="fill:#3a27ff;stroke-width:1.05046;stroke-linecap:round"
     d="m 153.47247,168.1025 c -0.0792,-0.17082 -0.14648,-2.1751 -0.14959,-4.45394 l -0.005,-4.14334 -0.41928,-0.3489 c -0.51607,-0.42942 -0.98464,-0.33799 -2.16819,0.42306 -2.17187,1.39656 -2.89807,1.53471 -3.70554,0.70493 -1.18935,-1.2222 -0.71928,-4.04241 0.85848,-5.1506 0.55518,-0.38994 0.70231,-0.41242 1.89716,-0.28987 2.28083,0.23396 2.72395,0.20029 3.15169,-0.23945 0.37596,-0.38651 0.38898,-0.51261 0.39344,-3.81108 0.002,-1.87624 0.0634,-3.53568 0.13519,-3.68762 0.11265,-0.23834 0.55077,-0.26738 3.19049,-0.21153 1.68294,0.0356 3.4632,0.14461 3.95612,0.24224 1.74197,0.345 2.39362,1.33914 2.20018,3.3565 -0.14802,1.54368 -0.002,2.32891 0.55907,3.0146 1.43681,1.75471 5.06893,1.88224 5.74629,0.20175 0.33245,-0.82475 0.11486,-1.56879 -0.93607,-3.20086 -1.50489,-2.33706 -1.56278,-3.2218 -0.26206,-4.00487 0.51027,-0.3072 0.90057,-0.36391 2.50427,-0.36391 1.94959,0 3.92289,0.32798 4.22518,0.70227 0.33425,0.41387 0.68517,2.35335 0.8684,4.79955 0.35806,4.78002 0.82714,5.50114 3.54182,5.44482 1.72382,-0.0358 2.32315,0.16291 3.0765,1.01982 1.8417,2.09483 1.15954,5.75139 -0.96072,5.14979 -0.33411,-0.0948 -1.14114,-0.57806 -1.7934,-1.07392 -1.57691,-1.19879 -2.08536,-1.4533 -2.94219,-1.47278 -1.58452,-0.036 -2.23405,1.50722 -2.0827,4.94826 0.0516,1.17398 0.14822,2.27426 0.21464,2.44508 0.11422,0.29376 -0.45004,0.31059 -10.41442,0.31059 -9.86354,0 -10.54436,-0.0198 -10.67912,-0.31059 z"
     id="path548" />
  <path
     style="fill:#3a27ff;stroke-width:1.05046;stroke-linecap:round"
     d="m 155.04487,112.30252 c -0.0568,-0.81554 -0.34123,-1.98623 -0.83854,-3.4512 -0.41394,-1.21934 -0.69119,-2.2801 -0.61611,-2.35724 0.14117,-0.14508 0.74914,0.16579 2.32245,1.1875 2.15441,1.39909 3.89913,0.40375 3.89161,-2.2201 -0.005,-1.83351 -0.87777,-3.292 -2.18592,-3.65398 -0.52686,-0.14579 -0.96298,-0.12225 -1.96041,0.10578 -1.17834,0.26939 -1.31722,0.27011 -1.70537,0.009 -0.62238,-0.41907 -0.55596,-1.35349 0.35462,-4.989132 0.46089,-1.840146 0.7772,-3.50029 0.7772,-4.079136 0,-0.973374 0.002,-0.975804 0.47495,-0.865404 0.26122,0.06087 1.67959,0.425345 3.15193,0.809909 2.77443,0.724657 4.46097,0.899304 4.91825,0.509307 0.42875,-0.365651 0.30325,-1.3756 -0.35792,-2.880362 -0.71533,-1.628067 -0.7019,-2.283704 0.0618,-3.015998 1.35806,-1.302261 4.18707,-0.973649 4.96739,0.576999 0.36476,0.724831 0.31712,1.465727 -0.19162,2.98039 -0.72654,2.16312 -0.26669,2.610083 2.04404,1.986767 0.73618,-0.198577 1.93382,-0.520781 2.66143,-0.716008 0.72762,-0.195226 1.71853,-0.355011 2.20203,-0.355074 l 0.87909,-1.18e-4 -0.0594,3.592509 c -0.0327,1.975883 -0.13206,3.732028 -0.22086,3.902538 -0.2481,0.476374 -0.92737,0.562907 -2.47573,0.315394 -1.68524,-0.269406 -2.34549,-0.111501 -3.16295,0.756449 -0.746,0.79208 -1.07572,1.70267 -1.07572,2.97078 0,1.92053 0.91843,3.0337 2.2855,2.77011 0.3103,-0.0598 1.22461,-0.50823 2.0318,-0.99643 0.80719,-0.48821 1.63993,-0.88765 1.85054,-0.88765 0.67554,0 0.76097,0.50611 0.71242,4.2204 -0.0252,1.92494 0.0165,3.83931 0.0927,4.25417 l 0.13845,0.75428 h -10.44084 -10.44082 z"
     id="path550" />
  <path
     style="fill:#3a27ff;stroke-width:1.05046;stroke-linecap:round"
     d="m 30.933577,140.54614 -3.756407,-0.0514 -0.0054,-1.46073 c -0.0031,-0.80341 -0.07499,-2.44636 -0.160174,-3.65103 -0.134285,-1.89897 -0.213664,-2.28154 -0.596807,-2.87651 -0.521798,-0.81026 -1.004867,-0.97725 -3.348042,-1.15737 -1.95883,-0.15056 -2.511597,-0.46952 -3.186597,-1.83871 -0.61046,-1.23828 -0.661655,-2.79398 -0.117772,-3.5789 0.603182,-0.87047 1.32862,-0.73172 3.336372,0.63815 1.354584,0.92423 1.824338,1.15361 2.362443,1.15361 1.095212,0 1.206395,-0.33444 1.400362,-4.2122 0.194908,-3.89656 0.270391,-4.3124 0.839466,-4.62479 0.709046,-0.38922 2.911026,-0.15813 5.466556,0.57368 1.544457,0.44228 2.544847,0.63458 3.108741,0.59757 l 0.831455,-0.0546 -0.02709,-0.8874 c -0.01492,-0.48806 -0.08247,-1.49122 -0.150141,-2.22924 l -0.123036,-1.34185 0.581908,-0.50419 c 0.793238,-0.68728 1.54298,-0.98284 2.493232,-0.98284 1.41438,0 2.492742,0.84026 2.492742,1.94233 0,0.19947 -0.354118,1.17234 -0.786933,2.16194 -0.432808,0.98961 -0.746122,1.90856 -0.696251,2.04211 0.140981,0.37754 0.993434,0.2904 2.913489,-0.29782 1.569236,-0.48074 4.230928,-0.97752 4.385638,-0.81854 0.107387,0.11036 -0.451855,3.07144 -1.063646,5.63182 -0.677663,2.83609 -0.763585,4.06036 -0.317148,4.51914 0.253006,0.25999 0.539636,0.28215 2.238397,0.17308 1.810862,-0.11628 1.98419,-0.0988 2.458337,0.24817 1.443192,1.05602 1.689945,4.43515 0.376615,5.15743 -0.663575,0.36494 -1.425652,0.18784 -3.031941,-0.70465 -1.70118,-0.9452 -2.331574,-1.09926 -2.331574,-0.5698 0,0.17468 0.304889,1.35914 0.677533,2.63215 0.372637,1.273 0.726846,2.62755 0.78714,3.01011 0.0603,0.38257 0.145473,0.87527 0.189306,1.09489 l 0.07969,0.39934 -6.782082,-0.0407 c -3.730144,-0.0224 -8.472463,-0.0639 -10.538481,-0.0922 z"
     id="path554" />
  <path
     style="fill:#3a27ff;stroke-width:1.05046;stroke-linecap:round"
     d="M 58.179455,126.80326 V 115.9621 l 3.7564,0.0594 c 3.413761,0.0539 3.811536,0.0925 4.360878,0.42301 1.05737,0.63607 0.96462,0.96046 -1.134702,3.96842 -0.648798,0.92962 -0.855705,1.81357 -0.56945,2.43284 0.794119,1.71796 4.443092,1.39492 5.926182,-0.52464 0.49231,-0.6372 0.53277,-0.80406 0.62402,-2.57343 0.0536,-1.04063 0.15253,-2.01356 0.21971,-2.16209 0.28249,-0.62448 0.85593,-0.76418 3.34299,-0.81442 2.14834,-0.0434 3.21505,-0.18347 4.12257,-0.54134 0.19949,-0.0787 0.22944,0.0522 0.15451,0.67537 -0.0511,0.42513 -0.15454,2.15523 -0.22983,3.84469 -0.12324,2.76526 -0.17262,3.10844 -0.49501,3.43973 -0.50407,0.518 -0.94697,0.35456 -2.71978,-1.00364 -1.61826,-1.2398 -2.37116,-1.5109 -3.20745,-1.15493 -0.75188,0.32005 -1.09126,1.10312 -1.07482,2.48 0.0152,1.27512 0.31177,2.14488 1.03057,3.02271 0.74637,0.91152 1.64475,1.23063 3.3483,1.18934 1.84408,-0.0447 2.45197,0.24854 2.97582,1.43547 0.32149,0.72845 0.37494,1.23907 0.43525,4.15814 l 0.0688,3.32771 H 68.646953 58.179494 Z"
     id="path556" />
</svg>
